<?xml version="1.0" encoding="UTF-8"?>
<svg width="192" height="192" preserveAspectRatio="xMidYMid" version="1.0" viewBox="0 0 144 144" xml:space="preserve" xmlns="http://www.w3.org/2000/svg"><rect x="1.7764e-14" y="1.7764e-14" width="144" height="144" rx="27.383" ry="27.383" fill="#4d91b1" stroke-linecap="round" stroke-linejoin="round" stroke-width=".42303"/><g transform="matrix(.0093807 0 0 -.0093807 11.964 132.05)" fill="#fea"><path d="m5385 12786c-92-29-158-87-199-175-21-45-21-56-24-687l-3-640-102-29c-388-108-835-298-1166-495l-85-51-465 465c-439 437-469 465-521 482-82 27-173 23-246-10-53-24-130-98-730-699-746-747-718-714-719-847 0-142-17-120 494-633l456-458-24-42c-132-236-243-467-329-682-59-148-154-435-189-570l-18-70-1280-10-57-28c-65-32-121-89-152-156l-21-46v-2010l28-57c32-65 89-121 156-152 45-21 56-21 691-24l645-3 43-151c104-365 300-824 477-1112l44-71-57-60c-31-33-179-184-327-335-610-619-580-582-580-725 1-63 6-90 24-130 19-40 160-187 695-722 460-460 685-678 714-692 90-45 197-47 290-5 23 11 208 188 497 476l461 458 114-65c328-187 711-348 1077-453l162-47 3-645c3-635 3-646 24-691 31-67 87-124 152-156l57-28h2010l57 28c65 32 121 89 152 156 21 45 21 56 24 687l3 642 62 17c408 111 818 282 1186 493l114 65 456-460c514-519 499-507 636-507 63 0 91 5 130 23 73 34 1390 1352 1426 1426 34 71 34 200 0 265-15 30-174 197-482 506l-460 460 56 95c85 142 235 454 308 639 66 166 148 414 182 547l19 72 645 3c636 3 647 3 692 24 67 31 124 87 156 152l28 57v2010l-28 57c-32 65-89 121-156 152-45 21-56 21-687 24l-642 3-11 44c-91 360-280 819-490 1185l-71 124 464 466c520 521 502 498 500 640-1 134 23 106-722 852-595 595-673 670-726 694-73 33-164 37-246 10-52-17-82-45-520-482l-466-464-114 66c-326 187-741 360-1117 465l-122 34-3 645c-3 637-3 646-25 692-30 66-95 132-156 159l-52 24-990 2c-779 1-999-1-1030-11zm1160-4527c580-49 1087-347 1410-829 71-106 174-315 215-438 220-653 55-1381-425-1881-557-580-1414-740-2135-400-392 186-696 485-885 874-110 224-163 422-185 680-14 162-1 345 35 520 166 798 849 1403 1665 1474 137 12 171 12 305 0z" fill="#fea"/></g></svg>
